<svg width="24" height="24" viewBox="0 0 24 24" fill="none" xmlns="http://www.w3.org/2000/svg">
<path d="M7.00781 12C7.00781 11.801 7.08683 11.6103 7.22748 11.4696C7.36813 11.329 7.5589 11.25 7.75781 11.25H11.2508V7.75696C11.2508 7.55805 11.3298 7.36728 11.4705 7.22663C11.6111 7.08598 11.8019 7.00696 12.0008 7.00696C12.1997 7.00696 12.3905 7.08598 12.5311 7.22663C12.6718 7.36728 12.7508 7.55805 12.7508 7.75696V11.25H16.2438C16.4427 11.25 16.6335 11.329 16.7741 11.4696C16.9148 11.6103 16.9938 11.801 16.9938 12C16.9938 12.1989 16.9148 12.3896 16.7741 12.5303C16.6335 12.6709 16.4427 12.75 16.2438 12.75H12.7508V16.243C12.7508 16.4419 12.6718 16.6326 12.5311 16.7733C12.3905 16.9139 12.1997 16.993 12.0008 16.993C11.8019 16.993 11.6111 16.9139 11.4705 16.7733C11.3298 16.6326 11.2508 16.4419 11.2508 16.243V12.75H7.75781C7.5589 12.75 7.36813 12.6709 7.22748 12.5303C7.08683 12.3896 7.00781 12.1989 7.00781 12Z" fill="white"/>
<path fill-rule="evenodd" clip-rule="evenodd" d="M7.31765 3.76905C10.4301 3.42399 13.5712 3.42399 16.6836 3.76905C18.5106 3.97305 19.9856 5.41205 20.1996 7.24905C20.5696 10.406 20.5696 13.595 20.1996 16.752C19.9846 18.589 18.5096 20.027 16.6836 20.232C13.5712 20.5771 10.4301 20.5771 7.31765 20.232C5.49065 20.027 4.01565 18.589 3.80165 16.752C3.4333 13.5951 3.4333 10.406 3.80165 7.24905C4.01565 5.41205 5.49165 3.97305 7.31765 3.76905ZM16.5176 5.25905C13.5155 4.92627 10.4858 4.92627 7.48365 5.25905C6.92789 5.3207 6.40915 5.56792 6.01123 5.96076C5.6133 6.35361 5.35944 6.86913 5.29065 7.42405C4.93498 10.465 4.93498 13.5371 5.29065 16.578C5.35965 17.1328 5.6136 17.6481 6.01151 18.0407C6.40941 18.4334 6.92804 18.6804 7.48365 18.742C10.4606 19.074 13.5406 19.074 16.5176 18.742C17.0731 18.6802 17.5915 18.4331 17.9892 18.0404C18.3869 17.6478 18.6407 17.1326 18.7096 16.578C19.0653 13.5371 19.0653 10.465 18.7096 7.42405C18.6405 6.86964 18.3866 6.35469 17.9889 5.96227C17.5912 5.56985 17.0729 5.32282 16.5176 5.26105" fill="white"/>
</svg>
