<svg width="35" height="35" viewBox="0 0 35 35" fill="none" xmlns="http://www.w3.org/2000/svg">
<path fill-rule="evenodd" clip-rule="evenodd" d="M29.1663 5.83335H5.83301C5.44623 5.83335 5.0753 5.987 4.80181 6.26049C4.52832 6.53398 4.37467 6.90491 4.37467 7.29169V27.7084C4.37467 28.0951 4.52832 28.4661 4.80181 28.7396C5.0753 29.013 5.44623 29.1667 5.83301 29.1667H29.1663C29.5531 29.1667 29.9241 29.013 30.1975 28.7396C30.471 28.4661 30.6247 28.0951 30.6247 27.7084V7.29169C30.6247 6.90491 30.471 6.53398 30.1975 6.26049C29.9241 5.987 29.5531 5.83335 29.1663 5.83335ZM5.83301 2.91669C4.67269 2.91669 3.55989 3.37762 2.73942 4.19809C1.91894 5.01857 1.45801 6.13136 1.45801 7.29169V27.7084C1.45801 28.8687 1.91894 29.9815 2.73942 30.8019C3.55989 31.6224 4.67269 32.0834 5.83301 32.0834H29.1663C30.3267 32.0834 31.4395 31.6224 32.2599 30.8019C33.0804 29.9815 33.5413 28.8687 33.5413 27.7084V7.29169C33.5413 6.13136 33.0804 5.01857 32.2599 4.19809C31.4395 3.37762 30.3267 2.91669 29.1663 2.91669H5.83301ZM8.74968 10.2084H11.6663V13.125H8.74968V10.2084ZM16.0413 10.2084C15.6546 10.2084 15.2836 10.362 15.0101 10.6355C14.7367 10.909 14.583 11.2799 14.583 11.6667C14.583 12.0535 14.7367 12.4244 15.0101 12.6979C15.2836 12.9714 15.6546 13.125 16.0413 13.125H24.7913C25.1781 13.125 25.5491 12.9714 25.8225 12.6979C26.096 12.4244 26.2497 12.0535 26.2497 11.6667C26.2497 11.2799 26.096 10.909 25.8225 10.6355C25.5491 10.362 25.1781 10.2084 24.7913 10.2084H16.0413ZM11.6663 16.0417H8.74968V18.9584H11.6663V16.0417ZM14.583 17.5C14.583 17.1132 14.7367 16.7423 15.0101 16.4688C15.2836 16.1953 15.6546 16.0417 16.0413 16.0417H24.7913C25.1781 16.0417 25.5491 16.1953 25.8225 16.4688C26.096 16.7423 26.2497 17.1132 26.2497 17.5C26.2497 17.8868 26.096 18.2577 25.8225 18.5312C25.5491 18.8047 25.1781 18.9584 24.7913 18.9584H16.0413C15.6546 18.9584 15.2836 18.8047 15.0101 18.5312C14.7367 18.2577 14.583 17.8868 14.583 17.5ZM11.6663 21.875H8.74968V24.7917H11.6663V21.875ZM14.583 23.3334C14.583 22.9466 14.7367 22.5756 15.0101 22.3022C15.2836 22.0287 15.6546 21.875 16.0413 21.875H24.7913C25.1781 21.875 25.5491 22.0287 25.8225 22.3022C26.096 22.5756 26.2497 22.9466 26.2497 23.3334C26.2497 23.7201 26.096 24.0911 25.8225 24.3646C25.5491 24.638 25.1781 24.7917 24.7913 24.7917H16.0413C15.6546 24.7917 15.2836 24.638 15.0101 24.3646C14.7367 24.0911 14.583 23.7201 14.583 23.3334Z" fill="black"/>
</svg>
