<svg width="35" height="35" viewBox="0 0 35 35" fill="none" xmlns="http://www.w3.org/2000/svg">
<path d="M8.74967 2.91669H21.8747C22.6482 2.91669 23.3901 3.22398 23.9371 3.77096C24.4841 4.31794 24.7913 5.05981 24.7913 5.83335V7.29169C24.7913 7.67846 24.6377 8.04939 24.3642 8.32288C24.0907 8.59637 23.7198 8.75002 23.333 8.75002C22.9462 8.75002 22.5753 8.59637 22.3018 8.32288C22.0283 8.04939 21.8747 7.67846 21.8747 7.29169V5.83335H8.74967V29.1667H21.8747V27.7084C21.8747 27.3216 22.0283 26.9506 22.3018 26.6772C22.5753 26.4037 22.9462 26.25 23.333 26.25C23.7198 26.25 24.0907 26.4037 24.3642 26.6772C24.6377 26.9506 24.7913 27.3216 24.7913 27.7084V29.1667C24.7913 29.9402 24.4841 30.6821 23.9371 31.2291C23.3901 31.7761 22.6482 32.0834 21.8747 32.0834H8.74967C7.97613 32.0834 7.23426 31.7761 6.68728 31.2291C6.1403 30.6821 5.83301 29.9402 5.83301 29.1667V5.83335C5.83301 5.05981 6.1403 4.31794 6.68728 3.77096C7.23426 3.22398 7.97613 2.91669 8.74967 2.91669Z" fill="black"/>
<path d="M24.4927 23.7635C25.0615 24.3323 25.9802 24.3323 26.549 23.7635L31.7815 18.531C32.0549 18.2576 32.2084 17.8867 32.2084 17.5C32.2084 17.1133 32.0549 16.7424 31.7815 16.469L26.549 11.2365C26.2717 10.9859 25.9089 10.8514 25.5353 10.8609C25.1618 10.8703 24.8061 11.0229 24.5419 11.2871C24.2777 11.5513 24.1251 11.907 24.1157 12.2805C24.1062 12.6541 24.2407 13.017 24.4913 13.2942L27.2271 16.0417H14.5833C14.1966 16.0417 13.8256 16.1953 13.5521 16.4688C13.2786 16.7423 13.125 17.1132 13.125 17.5C13.125 17.8868 13.2786 18.2577 13.5521 18.5312C13.8256 18.8047 14.1966 18.9583 14.5833 18.9583H27.2271L24.4913 21.7058C24.2194 21.9793 24.0669 22.3494 24.0672 22.735C24.0675 23.1206 24.2205 23.4904 24.4927 23.7635Z" fill="black"/>
</svg>
