<svg width="32" height="33" viewBox="0 0 32 33" fill="none" xmlns="http://www.w3.org/2000/svg">
<path d="M23.9272 27.4934V23.5103H19.9441V20.855H23.9272V16.8719H26.5826V20.855H30.5656V23.5103H26.5826V27.4934H23.9272ZM4.01183 28.8211C3.2816 28.8211 2.6567 28.5613 2.13713 28.0418C1.61756 27.5222 1.35733 26.8968 1.35645 26.1657V7.57805C1.35645 6.84782 1.61667 6.22292 2.13713 5.70335C2.65758 5.18378 3.28248 4.92355 4.01183 4.92267H22.5995C23.3297 4.92267 23.9551 5.1829 24.4755 5.70335C24.996 6.22381 25.2558 6.84871 25.2549 7.57805V14.2165H22.5995V11.5611H4.01183V26.1657H21.2718V28.8211H4.01183ZM4.01183 8.90574H22.5995V7.57805H4.01183V8.90574Z" fill="black"/>
</svg>
