<svg width="32" height="32" viewBox="0 0 32 32" fill="none" xmlns="http://www.w3.org/2000/svg">
<g clip-path="url(#clip0_199_21)">
<path fill-rule="evenodd" clip-rule="evenodd" d="M9.19705 8.67816H13.8402C14.0967 8.67816 14.3428 8.78008 14.5242 8.96148C14.7056 9.14289 14.8075 9.38893 14.8075 9.64548C14.8075 9.90203 14.9094 10.1481 15.0908 10.3295C15.2722 10.5109 15.5183 10.6128 15.7748 10.6128C16.0314 10.6128 16.2774 10.5109 16.4588 10.3295C16.6402 10.1481 16.7421 9.90203 16.7421 9.64548C16.7421 9.38893 16.844 9.14289 17.0255 8.96148C17.2069 8.78008 17.4529 8.67816 17.7094 8.67816H22.3526C23.436 8.67816 23.9777 8.67816 24.3839 8.88904C24.7477 9.07476 25.0437 9.37076 25.2294 9.73447C25.4403 10.1485 25.4403 10.6902 25.4403 11.7658V13.3135C25.4403 14.3969 25.4403 14.9386 25.2294 15.3449C25.0439 15.7089 24.7479 16.0049 24.3839 16.1904C23.9699 16.4012 23.4282 16.4012 22.3526 16.4012H9.19705C8.11366 16.4012 7.57196 16.4012 7.16569 16.1904C6.80168 16.0049 6.50573 15.7089 6.32025 15.3449C6.10937 14.9309 6.10938 14.3892 6.10938 13.3135V11.7658C6.10938 10.6824 6.10937 10.1407 6.32025 9.73447C6.50598 9.37076 6.80197 9.07476 7.16569 8.88904C7.5797 8.67816 8.1214 8.67816 9.19705 8.67816ZM13.047 10.6128H9.19705C8.62247 10.6128 8.30906 10.6128 8.08464 10.6321L8.05949 10.6341L8.05755 10.6612C8.03627 10.8875 8.03627 11.2009 8.03627 11.7736V13.3213C8.03627 13.8959 8.03627 14.2093 8.05562 14.4337V14.4589L8.0827 14.4608C8.30906 14.4801 8.62247 14.4801 9.19512 14.4801H22.3506C22.9233 14.4801 23.2386 14.4801 23.4631 14.4608L23.4882 14.4589L23.4901 14.4337C23.5095 14.2073 23.5095 13.892 23.5095 13.3213V11.7736C23.5095 11.199 23.5095 10.8836 23.4901 10.6612V10.6321H23.4631C23.0932 10.6124 22.7228 10.606 22.3526 10.6128H18.5026C18.3055 11.1791 17.9369 11.6701 17.4481 12.0175C16.9593 12.3649 16.3745 12.5516 15.7748 12.5516C15.1751 12.5516 14.5903 12.3649 14.1015 12.0175C13.6127 11.6701 13.2441 11.1791 13.047 10.6128ZM13.8402 20.286H9.19705C8.11366 20.286 7.57196 20.286 7.16569 20.4968C6.80168 20.6823 6.50573 20.9783 6.32025 21.3423C6.10937 21.7563 6.10938 22.298 6.10938 23.3737V24.9214C6.10938 26.0048 6.10937 26.5465 6.32025 26.9527C6.50598 27.3164 6.80197 27.6124 7.16569 27.7982C7.5797 28.009 8.1214 28.009 9.19705 28.009H22.3526C23.436 28.009 23.9777 28.009 24.3839 27.7982C24.7477 27.6124 25.0437 27.3164 25.2294 26.9527C25.4403 26.5387 25.4403 25.997 25.4403 24.9214V23.3737C25.4403 22.2903 25.4403 21.7486 25.2294 21.3423C25.0439 20.9783 24.7479 20.6823 24.3839 20.4968C23.9699 20.286 23.4282 20.286 22.3526 20.286H17.7094C17.4529 20.286 17.2069 20.3879 17.0255 20.5693C16.844 20.7507 16.7421 20.9967 16.7421 21.2533C16.7421 21.5098 16.6402 21.7559 16.4588 21.9373C16.2774 22.1187 16.0314 22.2206 15.7748 22.2206C15.5183 22.2206 15.2722 22.1187 15.0908 21.9373C14.9094 21.7559 14.8075 21.5098 14.8075 21.2533C14.8075 20.9967 14.7056 20.7507 14.5242 20.5693C14.3428 20.3879 14.0967 20.286 13.8402 20.286ZM9.19705 22.2206H13.047C13.2441 22.787 13.6127 23.2779 14.1015 23.6253C14.5903 23.9727 15.1751 24.1594 15.7748 24.1594C16.3745 24.1594 16.9593 23.9727 17.4481 23.6253C17.9369 23.2779 18.3055 22.787 18.5026 22.2206H22.3526C22.9252 22.2206 23.2406 22.2206 23.465 22.24L23.4901 22.2419L23.4921 22.269C23.5114 22.4953 23.5114 22.8087 23.5114 23.3814V24.9291C23.5114 25.5017 23.5114 25.8171 23.4921 26.0415V26.0667H23.465C23.0946 26.0871 22.7235 26.0942 22.3526 26.0879H9.19705C8.62247 26.0879 8.30906 26.0879 8.08464 26.0686L8.05949 26.0667L8.05755 26.0415C8.03713 25.6711 8.03003 25.3 8.03627 24.9291V23.3814C8.03627 22.8087 8.03627 22.4915 8.05562 22.269V22.2419H8.0827C8.31099 22.2206 8.6244 22.2206 9.19705 22.2206Z" fill="black"/>
<path fill-rule="evenodd" clip-rule="evenodd" d="M2.34859 5.50536C2.24219 5.95032 2.24219 6.42431 2.24219 7.37035V25.6913C2.24219 27.8581 2.24219 28.9415 2.66394 29.7734C3.03539 30.5008 3.62739 31.0928 4.35481 31.4643C5.18283 31.886 6.26623 31.886 8.43689 31.886H23.1401C25.3069 31.886 26.3903 31.886 27.2222 31.4643C27.9496 31.0928 28.5416 30.5008 28.9131 29.7734C29.3348 28.9454 29.3348 27.862 29.3348 25.6913V7.37035C29.3348 6.42431 29.3348 5.95032 29.2265 5.50536C29.132 5.11067 28.9759 4.73332 28.7641 4.38714C28.5242 3.99634 28.1895 3.66165 27.5201 2.99227L27.2783 2.75044C26.6089 2.08105 26.2742 1.74636 25.8854 1.50647C25.5386 1.29446 25.1606 1.13842 24.7652 1.04409C24.3202 0.937683 23.8463 0.937683 22.9002 0.937683H8.68065C7.73462 0.937683 7.26063 0.937683 6.81567 1.04409C6.41842 1.14082 6.04568 1.29495 5.69745 1.50647C5.30665 1.74636 4.97196 2.08105 4.30451 2.75044L4.06074 2.99227C3.39136 3.66165 3.05667 3.99634 2.81677 4.38714C2.60496 4.73332 2.44892 5.11067 2.3544 5.50536H2.34859ZM27.3054 25.6256V7.30457C27.3054 6.26567 27.2938 6.06253 27.2512 5.89228C27.2037 5.69489 27.1253 5.50621 27.0191 5.33317C26.9281 5.18421 26.7927 5.02944 26.0575 4.29621L25.8157 4.05438C25.0806 3.31922 24.9277 3.18379 24.7788 3.09287C24.6057 2.98662 24.417 2.90828 24.2196 2.86071C24.0494 2.82008 23.8443 2.80654 22.8074 2.80654H8.58779C7.54889 2.80654 7.34576 2.82008 7.17551 2.86071C6.97811 2.90828 6.78943 2.98662 6.6164 3.09287C6.46743 3.18379 6.31266 3.31922 5.57943 4.05438L5.3376 4.29621C4.60244 5.03137 4.46702 5.18421 4.37609 5.33317C4.26984 5.50621 4.1915 5.69489 4.14393 5.89228C4.10524 6.06253 4.0917 6.2676 4.0917 7.30457V25.6256C4.0917 26.7419 4.0917 27.4615 4.13813 28.0052C4.18069 28.5314 4.25421 28.7249 4.30257 28.8216C4.4883 29.1853 4.7843 29.4813 5.14801 29.667C5.24474 29.7154 5.43821 29.7889 5.96443 29.8315C6.51193 29.876 7.23355 29.8779 8.34403 29.8779H23.0473C24.1635 29.8779 24.8832 29.8779 25.4269 29.8315C25.9531 29.7889 26.1465 29.7154 26.2433 29.667C26.607 29.4813 26.901 29.1853 27.0887 28.8216C27.1371 28.7249 27.2106 28.5314 27.2532 28.0052C27.2976 27.4577 27.2996 26.736 27.2996 25.6256H27.3054Z" fill="black"/>
</g>
<defs>
<clipPath id="clip0_199_21">
<rect width="30.9542" height="30.9542" fill="white" transform="translate(0.297852 0.939636)"/>
</clipPath>
</defs>
</svg>
